<svg width="67" height="62" viewBox="0 0 67 62" fill="none" xmlns="http://www.w3.org/2000/svg">
<path d="M14.1 0C11.9687 0 10.225 1.74375 10.225 3.875V58.125C10.225 60.2562 11.9687 62 14.1 62H52.85C54.9812 62 56.725 60.2562 56.725 58.125V15.5L41.225 0H14.1Z" fill="#E2E5E7"/>
<path d="M45.1 15.5H56.725L41.225 0V11.625C41.225 13.7563 42.9687 15.5 45.1 15.5Z" fill="#B0B7BD"/>
<path d="M56.725 27.125L45.1 15.5H56.725V27.125Z" fill="#CAD1D8"/>
<path d="M47.0375 52.3125H10.225V54.25H47.0375C48.1031 54.25 48.975 53.3781 48.975 52.3125V50.375C48.975 51.4406 48.1031 52.3125 47.0375 52.3125Z" fill="#CAD1D8"/>
<path d="M50.1 50.3125C50.1 51.3781 49.1906 52.25 48.0792 52.25H3.62083C2.50937 52.25 1.6 51.3781 1.6 50.3125V30.9375C1.6 29.8719 2.50937 29 3.62083 29H48.0792C49.1906 29 50.1 29.8719 50.1 30.9375V50.3125Z" fill="#50CD89"/>
<path d="M36.1374 46.1501C35.8574 46.1501 35.6241 46.0754 35.4374 45.9261C35.2601 45.7674 35.1574 45.5761 35.1294 45.3521C35.1014 45.1187 35.1761 44.8807 35.3534 44.6381L38.4474 40.5361V41.5021L35.4794 37.5541C35.3021 37.3021 35.2227 37.0641 35.2414 36.8401C35.2694 36.6067 35.3721 36.4154 35.5494 36.2661C35.7361 36.1074 35.9647 36.0281 36.2354 36.0281C36.4687 36.0281 36.6694 36.0841 36.8374 36.1961C37.0147 36.3081 37.1921 36.4854 37.3694 36.7281L39.6794 39.9201H38.9794L41.2754 36.7281C41.4527 36.4761 41.6301 36.2987 41.8074 36.1961C41.9847 36.0841 42.1901 36.0281 42.4234 36.0281C42.7034 36.0281 42.9321 36.1027 43.1094 36.2521C43.2961 36.4014 43.3987 36.5927 43.4174 36.8261C43.4454 37.0501 43.3661 37.2927 43.1794 37.5541L40.1974 41.5021V40.5361L43.2774 44.6381C43.4641 44.8807 43.5434 45.1187 43.5154 45.3521C43.4967 45.5761 43.3941 45.7674 43.2074 45.9261C43.0301 46.0754 42.7967 46.1501 42.5074 46.1501C42.2834 46.1501 42.0827 46.0941 41.9054 45.9821C41.7374 45.8701 41.5601 45.6881 41.3734 45.4361L38.9654 42.1181H39.6794L37.2714 45.4361C37.0941 45.6881 36.9167 45.8701 36.7394 45.9821C36.5621 46.0941 36.3614 46.1501 36.1374 46.1501Z" fill="white"/>
<path d="M29.7974 46.178C29.4054 46.178 29.004 46.1453 28.5934 46.08C28.192 46.024 27.8047 45.94 27.4314 45.828C27.0674 45.716 26.7407 45.576 26.4514 45.408C26.246 45.296 26.1014 45.1513 26.0174 44.974C25.9334 44.7873 25.9007 44.6007 25.9194 44.414C25.9474 44.2273 26.0174 44.064 26.1294 43.924C26.2507 43.7747 26.4 43.6813 26.5774 43.644C26.764 43.5973 26.9694 43.63 27.1934 43.742C27.576 43.9567 27.9914 44.1153 28.4394 44.218C28.8967 44.3207 29.3494 44.372 29.7974 44.372C30.4787 44.372 30.964 44.2693 31.2534 44.064C31.5427 43.8493 31.6874 43.5833 31.6874 43.266C31.6874 42.9953 31.5847 42.7807 31.3794 42.622C31.174 42.4633 30.8147 42.328 30.3014 42.216L28.7194 41.88C27.8234 41.6933 27.156 41.376 26.7174 40.928C26.288 40.4707 26.0734 39.8733 26.0734 39.136C26.0734 38.6693 26.1714 38.2447 26.3674 37.862C26.5634 37.4793 26.8387 37.148 27.1934 36.868C27.548 36.588 27.968 36.3733 28.4534 36.224C28.948 36.0747 29.4894 36 30.0774 36C30.6 36 31.1134 36.0653 31.6174 36.196C32.1214 36.3173 32.5647 36.4993 32.9474 36.742C33.134 36.854 33.26 36.9987 33.3254 37.176C33.4 37.344 33.4234 37.5167 33.3954 37.694C33.3767 37.862 33.3067 38.0113 33.1854 38.142C33.0734 38.2727 32.9287 38.3567 32.7514 38.394C32.574 38.4313 32.3594 38.3893 32.1074 38.268C31.7994 38.1093 31.4727 37.9927 31.1274 37.918C30.782 37.8433 30.4274 37.806 30.0634 37.806C29.6714 37.806 29.3354 37.8573 29.0554 37.96C28.7847 38.0627 28.5747 38.2073 28.4254 38.394C28.2854 38.5807 28.2154 38.7953 28.2154 39.038C28.2154 39.3087 28.3134 39.528 28.5094 39.696C28.7054 39.864 29.046 39.9993 29.5314 40.102L31.1134 40.438C32.028 40.634 32.7094 40.9513 33.1574 41.39C33.6054 41.8193 33.8294 42.3887 33.8294 43.098C33.8294 43.5647 33.736 43.9893 33.5494 44.372C33.3627 44.7453 33.092 45.0673 32.7374 45.338C32.3827 45.6087 31.958 45.8187 31.4634 45.968C30.9687 46.108 30.4134 46.178 29.7974 46.178Z" fill="white"/>
<path d="M19.1077 46.0241C18.753 46.0241 18.4777 45.9261 18.2817 45.7301C18.095 45.5341 18.0017 45.2634 18.0017 44.9181V37.2321C18.0017 36.8681 18.095 36.5928 18.2817 36.4061C18.4684 36.2194 18.739 36.1261 19.0937 36.1261C19.439 36.1261 19.705 36.2194 19.8917 36.4061C20.0784 36.5928 20.1717 36.8681 20.1717 37.2321V44.1901H23.9237C24.2224 44.1901 24.451 44.2694 24.6097 44.4281C24.7777 44.5868 24.8617 44.8108 24.8617 45.1001C24.8617 45.3988 24.7777 45.6274 24.6097 45.7861C24.451 45.9448 24.2224 46.0241 23.9237 46.0241H19.1077Z" fill="white"/>
<path d="M8.61373 46.1501C8.33373 46.1501 8.10039 46.0754 7.91373 45.9261C7.73639 45.7674 7.63373 45.5761 7.60573 45.3521C7.57773 45.1187 7.65239 44.8807 7.82973 44.6381L10.9237 40.5361V41.5021L7.95573 37.5541C7.77839 37.3021 7.69906 37.0641 7.71773 36.8401C7.74573 36.6067 7.84839 36.4154 8.02573 36.2661C8.21239 36.1074 8.44106 36.0281 8.71173 36.0281C8.94506 36.0281 9.14573 36.0841 9.31373 36.1961C9.49106 36.3081 9.66839 36.4854 9.84573 36.7281L12.1557 39.9201H11.4557L13.7517 36.7281C13.9291 36.4761 14.1064 36.2987 14.2837 36.1961C14.4611 36.0841 14.6664 36.0281 14.8997 36.0281C15.1797 36.0281 15.4084 36.1027 15.5857 36.2521C15.7724 36.4014 15.8751 36.5927 15.8937 36.8261C15.9217 37.0501 15.8424 37.2927 15.6557 37.5541L12.6737 41.5021V40.5361L15.7537 44.6381C15.9404 44.8807 16.0197 45.1187 15.9917 45.3521C15.9731 45.5761 15.8704 45.7674 15.6837 45.9261C15.5064 46.0754 15.2731 46.1501 14.9837 46.1501C14.7597 46.1501 14.5591 46.0941 14.3817 45.9821C14.2137 45.8701 14.0364 45.6881 13.8497 45.4361L11.4417 42.1181H12.1557L9.74773 45.4361C9.57039 45.6881 9.39306 45.8701 9.21573 45.9821C9.03839 46.0941 8.83773 46.1501 8.61373 46.1501Z" fill="white"/>
</svg>
